<?xml version="1.0" encoding="UTF-8" standalone="no"?>
<!-- Created with Inkscape (http://www.inkscape.org/) -->

<svg
   xmlns:dc="http://purl.org/dc/elements/1.1/"
   xmlns:cc="http://creativecommons.org/ns#"
   xmlns:rdf="http://www.w3.org/1999/02/22-rdf-syntax-ns#"
   xmlns:svg="http://www.w3.org/2000/svg"
   xmlns="http://www.w3.org/2000/svg"
   xmlns:sodipodi="http://sodipodi.sourceforge.net/DTD/sodipodi-0.dtd"
   xmlns:inkscape="http://www.inkscape.org/namespaces/inkscape"
   width="32"
   height="32"
   viewBox="0 0 32 32.000001"
   id="svg2"
   version="1.1"
   inkscape:version="0.91 r13725"
   sodipodi:docname="icon.svg"
   inkscape:export-filename="D:\nanase\Documents\Visual Studio 2015\Projects\Shuugoo\icon.png"
   inkscape:export-xdpi="90"
   inkscape:export-ydpi="90">
  <defs
     id="defs4" />
  <sodipodi:namedview
     id="base"
     pagecolor="#ffffff"
     bordercolor="#666666"
     borderopacity="1.0"
     inkscape:pageopacity="0.0"
     inkscape:pageshadow="2"
     inkscape:zoom="7.9195959"
     inkscape:cx="24.319853"
     inkscape:cy="16.398411"
     inkscape:document-units="px"
     inkscape:current-layer="layer1"
     showgrid="false"
     units="px"
     inkscape:window-width="1920"
     inkscape:window-height="1017"
     inkscape:window-x="-8"
     inkscape:window-y="-8"
     inkscape:window-maximized="1" />
  <metadata
     id="metadata7">
    <rdf:RDF>
      <cc:Work
         rdf:about="">
        <dc:format>image/svg+xml</dc:format>
        <dc:type
           rdf:resource="http://purl.org/dc/dcmitype/StillImage" />
        <dc:title></dc:title>
      </cc:Work>
    </rdf:RDF>
  </metadata>
  <g
     inkscape:label="レイヤー 1"
     inkscape:groupmode="layer"
     id="layer1"
     transform="translate(0,-1020.3622)">
    <g
       id="g4272"
       style="fill:#ffffff;fill-opacity:1;stroke:#000000;stroke-width:0.23762897;stroke-miterlimit:4;stroke-dasharray:none;stroke-opacity:1"
       transform="matrix(1.6001398,0,0,1.6065463,1.0093614,-618.99982)">
      <path
         inkscape:connector-curvature="0"
         d="m 6.6215319,1021.1129 c 0.073968,0.3437 -0.085663,0.6496 -0.2197006,0.957 -0.296041,0.6345 -0.6956323,1.2118 -1.0949366,1.7841 -0.3955525,0.5731 -0.8716943,1.0798 -1.3557859,1.5773 -0.2690815,0.2739 -0.5488645,0.5378 -0.8385118,0.7899 -0.087193,0.075 -0.17499,0.1489 -0.255427,0.2315 -0.087463,0.049 -0.1614803,0.1181 -0.2451732,0.1716 0,0 -2.04417719,0.8261 -2.04417719,0.8261 l 0,0 c 0.0812445,-0.086 -0.0112706,0 0.0810506,-0.065 0.0522925,-0.04 0.0921871,-0.097 0.15370055,-0.1252 0.1187858,-0.049 0.1906435,-0.1598 0.29964244,-0.2255 0.1359691,-0.112 0.062889,-0.054 0.2199983,-0.1736 0.2518331,-0.2024 0.4911995,-0.4207 0.7274401,-0.6409 0.4964994,-0.4907 0.9930069,-0.987 1.3987015,-1.5579 0.3877747,-0.5494 0.7745112,-1.105 1.0567413,-1.718 0.070718,-0.1791 0.1978925,-0.4512 0.2022883,-0.6489 0.00118,-0.053 -0.010908,-0.077 -0.026916,-0.124 0,0 1.9410655,-1.0581 1.9410655,-1.0581 z"
         id="path4184"
         style="opacity:1;fill:#ffffff;fill-opacity:1;stroke:#000000;stroke-width:0.23762897;stroke-miterlimit:4;stroke-dasharray:none;stroke-opacity:1" />
      <path
         inkscape:connector-curvature="0"
         d="m 12.07166,1021.0811 c -0.01186,0.032 -0.02072,0.066 -0.03558,0.097 -0.166402,0.3489 -0.46777,0.6704 -0.715909,0.9638 -0.264389,0.3048 -0.547158,0.5921 -0.845356,0.8636 -0.06727,0.063 -0.13697,0.1237 -0.203686,0.1875 0,0 -2.0297239,0.8211 -2.0297239,0.8211 l 0,0 c 0.082747,-0.063 0.1563718,-0.1346 0.2401893,-0.1961 0.1568875,-0.1378 0.074433,-0.068 0.2478757,-0.2098 0.2366448,-0.2048 0.4595252,-0.4253 0.6719205,-0.6549 0.2498878,-0.2839 0.5189173,-0.5722 0.6790854,-0.9186 0,0 1.991184,-0.9539 1.991184,-0.9539 z"
         id="path4186"
         style="opacity:1;fill:#ffffff;fill-opacity:1;stroke:#000000;stroke-width:0.23762897;stroke-miterlimit:4;stroke-dasharray:none;stroke-opacity:1" />
      <path
         inkscape:connector-curvature="0"
         d="m 9.6421522,1033.784 c -0.1088203,0.1068 -0.2260714,0.2056 -0.341791,0.3053 -0.1949484,0.1624 -0.4014172,0.3103 -0.6064677,0.4596 -0.2214777,0.157 -0.4387949,0.3197 -0.654346,0.4847 -0.2363052,0.1861 -0.4745264,0.3698 -0.7153596,0.55 -0.2592262,0.1983 -0.5369669,0.3698 -0.815151,0.5398 -0.8894637,0.5319 -1.7778423,1.0674 -2.7058464,1.5291 -0.2760817,0.1493 -0.5619481,0.2789 -0.8513661,0.3998 -0.2743396,0.1158 -0.5533325,0.22 -0.8290558,0.3323 -0.2329222,0.097 -0.4655794,0.1944 -0.7026677,0.2808 -0.1631873,0.058 -0.3196426,0.1312 -0.47884224,0.1985 -0.078091,0.042 -0.039096,0.022 -0.1169088,0.059 0,0 1.72007064,-1.3677 1.72007064,-1.3677 l 0,0 c 0.076232,-0.035 0.037001,-0.018 0.1177846,-0.05 0.1541801,-0.065 0.3118251,-0.1211 0.4688412,-0.1789 0.2298137,-0.088 0.456771,-0.1829 0.6856086,-0.2733 0.2746071,-0.1068 0.5484358,-0.2156 0.8190033,-0.3323 0.2845353,-0.1269 0.5644884,-0.2631 0.8404391,-0.4079 0.1436089,-0.074 0.2872352,-0.1481 0.4287153,-0.2261 0.048535,-0.027 0.192835,-0.1095 0.1448699,-0.082 -1.0423246,0.6038 -2.3058733,1.3314 -1.5363141,0.8882 0.2766623,-0.163 0.5521142,-0.329 0.8136303,-0.5157 0.2399537,-0.1795 0.4807905,-0.3578 0.7152012,-0.5445 0.209887,-0.1692 0.4244644,-0.3324 0.6427031,-0.4907 0.2028441,-0.1421 0.4016409,-0.2897 0.5995811,-0.4386 0.2440293,-0.1993 -0.073663,0.063 0.1448123,-0.1254 0.053223,-0.046 0.058293,-0.041 0.1040266,-0.088 0.011729,-0.012 0.020415,-0.027 0.032464,-0.039 0.00723,-0.01 0.016609,-0.012 0.024914,-0.017 0,0 2.0514515,-0.8497 2.0514515,-0.8497 z"
         id="path4192"
         style="opacity:1;fill:#ffffff;fill-opacity:1;stroke:#000000;stroke-width:0.23762897;stroke-miterlimit:4;stroke-dasharray:none;stroke-opacity:1" />
      <path
         inkscape:connector-curvature="0"
         d="m 11.416062,1033.2536 c 0.151302,0.1227 0.296684,0.2526 0.441391,0.3831 0.337786,0.3073 0.671064,0.6196 1.008929,0.927 0.463676,0.4261 0.991521,0.7684 1.521986,1.1035 0.469874,0.2965 0.960564,0.5572 1.454448,0.8107 0.361475,0.1843 0.730393,0.3539 1.105884,0.5076 0.259824,0.1091 0.525406,0.2039 0.791911,0.2953 0.188517,0.071 0.383542,0.1216 0.579721,0.1659 0.119641,0.028 0.24219,0.041 0.361879,0.069 0,0 -1.803972,1.2535 -1.803972,1.2535 l 0,0 c -0.119703,-0.023 -0.238736,-0.05 -0.356142,-0.083 -0.195823,-0.056 -0.38973,-0.1187 -0.579493,-0.1928 -0.259106,-0.1015 -0.516198,-0.2081 -0.768905,-0.3247 -0.369929,-0.1664 -0.733905,-0.3465 -1.090356,-0.54 -0.481079,-0.2705 -0.958989,-0.5471 -1.419414,-0.8518 -0.538697,-0.3464 -1.080161,-0.6926 -1.565291,-1.1132 -0.351743,-0.2963 -0.693288,-0.6049 -1.05516,-0.8889 -0.1615891,-0.1179 -0.3238933,-0.2358 -0.5011286,-0.3295 0,0 1.8737126,-1.1912 1.8737126,-1.1912 z"
         id="path4204"
         style="opacity:1;fill:#ffffff;fill-opacity:1;stroke:#000000;stroke-width:0.23762897;stroke-miterlimit:4;stroke-dasharray:none;stroke-opacity:1" />
      <path
         inkscape:connector-curvature="0"
         d="m 5.1528424,1024.4605 c 0.00275,0.1481 0.00514,0.2961 0.0072,0.4442 0.0022,0.2331 0.00392,0.4662 0.00697,0.6993 4.496e-4,0.2399 -0.00852,0.4797 -0.013178,0.7195 -0.00386,0.216 -0.00669,0.432 -0.00823,0.6481 -9.441e-4,0.1974 -0.0033,0.3948 -0.00428,0.5922 -7.412e-4,0.1912 -9.353e-4,0.3824 -0.00113,0.5736 5.693e-4,0.1724 0.00106,0.3449 0.00214,0.5173 -5.93e-5,0.1458 0.00191,0.2916 0.00339,0.4374 -0.0021,0.122 0.00364,0.2436 0.011657,0.3652 0.00834,0.1125 0.02621,0.2239 0.037461,0.336 0.017027,0.114 0.042939,0.2264 0.063118,0.3398 0.018175,0.1034 0.030034,0.2076 0.039823,0.3121 0.00864,0.096 0.013644,0.1918 0.017821,0.2879 0.00196,0.046 0.00331,0.093 0.00466,0.1393 0,0 -1.9638828,1.0066 -1.9638828,1.0066 l 0,0 c -8.926e-4,-0.046 -0.00179,-0.091 -0.0031,-0.1369 -0.00277,-0.093 -0.00609,-0.1868 -0.012097,-0.28 -0.00673,-0.1 -0.014916,-0.1992 -0.028789,-0.2981 -0.016805,-0.116 -0.037886,-0.2313 -0.063996,-0.3456 -0.019599,-0.1161 -0.026292,-0.2341 -0.043399,-0.3506 -0.00775,-0.1262 -0.021041,-0.2523 -0.015928,-0.3789 0.00168,-0.1471 0.00387,-0.2942 0.00417,-0.4414 0.00152,-0.1735 0.00255,-0.3471 0.00396,-0.5207 7.878e-4,-0.1918 0.00177,-0.3836 0.00312,-0.5754 0.00128,-0.1982 0.00165,-0.3964 0.00561,-0.5946 0.00399,-0.2179 0.0077,-0.4358 0.014107,-0.6537 0.00662,-0.2379 0.013288,-0.4759 0.018538,-0.7138 -0.00215,-0.2299 -0.00601,-0.4599 -0.016473,-0.6897 -0.00658,-0.1367 -0.011328,-0.2746 -0.035743,-0.4096 0,0 1.9664873,-1.0295 1.9664873,-1.0295 z"
         id="path4212"
         style="opacity:1;fill:#ffffff;fill-opacity:1;stroke:#000000;stroke-width:0.23762897;stroke-miterlimit:4;stroke-dasharray:none;stroke-opacity:1" />
      <path
         inkscape:connector-curvature="0"
         d="m 10.951212,1022.7867 c 0.03542,0.2151 0.04546,0.4328 0.05543,0.6502 0.0183,0.5789 0.0084,1.1584 0.0022,1.7374 -0.01092,0.8721 0.0033,1.7441 0.0071,2.6161 -0.0062,0.6438 -0.0086,1.2877 -0.01075,1.9315 -0.0017,0.3486 -0.0016,0.6973 -0.005,1.0459 0,0 -1.9267767,0.9708 -1.9267767,0.9708 l 0,0 c 0.028616,-0.3566 0.036299,-0.7147 0.062215,-1.0715 0.038657,-0.656 0.079934,-1.3121 0.095431,-1.9692 0.018211,-0.8677 0.012093,-1.7359 -0.021534,-2.6032 -0.024078,-0.5578 -0.047558,-1.1159 -0.1017483,-1.6717 -0.021465,-0.1921 -0.035902,-0.3914 -0.1076618,-0.5727 0,0 1.9510958,-1.0636 1.9510958,-1.0636 z"
         id="path4222"
         style="opacity:1;fill:#ffffff;fill-opacity:1;stroke:#000000;stroke-width:0.23762897;stroke-miterlimit:4;stroke-dasharray:none;stroke-opacity:1" />
      <path
         inkscape:connector-curvature="0"
         d="m 6.0832518,1023.3898 c 0.267657,0.075 0.5438464,0.1188 0.8183518,0.1608 0.6157135,0.091 1.2376937,0.112 1.8590715,0.1158 0.8804643,-0.014 1.7604349,-0.048 2.6401519,-0.085 0.78549,-0.039 1.570276,-0.091 2.354997,-0.1437 0.469282,-0.032 0.938598,-0.063 1.40809,-0.092 0.283446,-0.018 0.567267,-0.027 0.851117,-0.035 0.118258,0 0.236108,-0.01 0.354011,-0.015 0,0 -1.751987,1.2845 -1.751987,1.2845 l 0,0 c -0.115754,0 -0.231514,0 -0.347243,0.01 -0.276332,0.01 -0.552593,0.016 -0.828889,0.024 -0.446588,0.013 -0.893149,0.027 -1.339611,0.043 -0.76693,0.03 -1.533366,0.07 -2.3002681,0.1001 -0.8931629,0.033 -1.786049,0.072 -2.6791309,0.1049 -0.1281182,0 -0.2562282,0.01 -0.3843547,0 -0.5172136,0 -1.0334807,-0.05 -1.5475704,-0.1023 -0.3119114,-0.034 -0.624162,-0.066 -0.9348402,-0.1099 0,0 1.8281041,-1.261 1.8281041,-1.261 z"
         id="path4234"
         style="opacity:1;fill:#ffffff;fill-opacity:1;stroke:#000000;stroke-width:0.23762897;stroke-miterlimit:4;stroke-dasharray:none;stroke-opacity:1" />
      <path
         inkscape:connector-curvature="0"
         d="m 5.9376177,1025.7294 c 0.2571524,0.043 0.5212867,0.044 0.7815333,0.053 0.5385617,0.015 1.0770199,0.036 1.6147559,0.07 0.6555737,0.041 1.3117696,0.069 1.9685801,0.077 0.761712,0.013 1.521412,-0.04 2.279764,-0.1041 0.570885,-0.051 1.138869,-0.1282 1.705095,-0.2159 0.321259,-0.046 0.638906,-0.1134 0.9576,-0.1741 0.201143,-0.039 0.400915,-0.084 0.600202,-0.1309 0,0 -1.708006,1.3007 -1.708006,1.3007 l 0,0 c -0.202005,0.045 -0.404375,0.088 -0.607477,0.1271 -0.309417,0.06 -0.620835,0.1084 -0.934382,0.142 -0.547675,0.064 -1.096647,0.1201 -1.64691,0.157 -0.764528,0.05 -1.5299746,0.098 -2.2964856,0.094 -0.666019,-0.01 -1.3314432,-0.033 -1.9966592,-0.066 -0.5490052,-0.022 -1.0982175,-0.045 -1.6478081,-0.037 -0.2879699,0 -0.5771619,0 -0.8645194,0.011 0,0 1.794717,-1.304 1.794717,-1.304 z"
         id="path4236"
         style="opacity:1;fill:#ffffff;fill-opacity:1;stroke:#000000;stroke-width:0.23762897;stroke-miterlimit:4;stroke-dasharray:none;stroke-opacity:1" />
      <path
         inkscape:connector-curvature="0"
         d="m 5.1392413,1028.1969 c 0.2287324,0.03 0.4570471,0.061 0.686731,0.083 0.097655,0.01 0.1952217,0.016 0.292964,0.022 0.2888001,0.018 0.373796,0.016 0.6651434,0.033 0.3760183,0.021 0.7512309,0.049 1.1274637,0.067 0.9544532,0.033 1.9063925,-0.065 2.8568546,-0.137 0.917629,-0.071 1.83455,-0.1501 2.751595,-0.2279 0.300122,-0.019 0.600094,-0.048 0.900983,-0.054 0.27085,-0.01 0.542805,0.01 0.813628,0.01 0.335522,0 0.170267,0 0.495763,0.01 0,0 -1.702979,1.2314 -1.702979,1.2314 l 0,0 c -0.316292,-0.01 -0.155474,-0.01 -0.482457,-0.015 -0.555074,-0.01 -1.109889,0 -1.664286,0.03 -0.890489,0.045 -1.780926,0.095 -2.6694638,0.1705 -0.9752424,0.086 -1.95258,0.1872 -2.9330021,0.1618 -0.7177667,-0.029 -1.435409,-0.066 -2.1537756,-0.077 -0.2650713,-0.01 -0.5304112,-0.01 -0.7952573,-0.02 0,0 1.8100951,-1.2847 1.8100951,-1.2847 z"
         id="path4242"
         style="opacity:1;fill:#ffffff;fill-opacity:1;stroke:#000000;stroke-width:0.23762897;stroke-miterlimit:4;stroke-dasharray:none;stroke-opacity:1" />
      <path
         inkscape:connector-curvature="0"
         d="m 5.3025935,1030.3964 c 0.03921,0 0.1455926,-0.01 0.1666405,-0.01 0.1309638,-0.013 0.2608687,-0.035 0.3917187,-0.05 0.2136606,-0.023 0.4278457,-0.041 0.6417185,-0.062 0.8396695,-0.093 1.6838816,-0.1217 2.5276851,-0.1465 0.9703987,-0.021 1.9408797,-0.037 2.9113487,-0.055 0.988787,-0.019 1.977752,-0.018 2.966652,-0.012 0.749732,0.01 1.499522,0.037 2.248013,0.082 0.422691,0.032 0.845321,0.065 1.268229,0.094 0,0 -1.723236,1.2292 -1.723236,1.2292 l 0,0 c -0.407138,-0.043 -0.814294,-0.087 -1.222174,-0.1228 -0.723927,-0.058 -1.44918,-0.1028 -2.175348,-0.1204 -0.98042,-0.021 -1.961056,-0.025 -2.941473,0 -0.9768878,0.021 -1.953867,0.04 -2.9304618,0.072 -0.8553863,0.033 -1.71126,0.076 -2.5601677,0.192 -0.4487852,0.064 -0.8977388,0.135 -1.3388256,0.2409 0,0 1.7696806,-1.3351 1.7696806,-1.3351 z"
         id="path4248"
         style="opacity:1;fill:#ffffff;fill-opacity:1;stroke:#000000;stroke-width:0.23762897;stroke-miterlimit:4;stroke-dasharray:none;stroke-opacity:1" />
      <path
         inkscape:connector-curvature="0"
         d="m 2.0536891,1033.0955 c 0.2600807,-0.013 0.5200449,-0.028 0.7800099,-0.044 0.3987101,-0.023 0.7973873,-0.045 1.1959445,-0.071 0.3829796,-0.018 0.7656448,-0.039 1.1482935,-0.062 0.3933914,-0.025 0.7862057,-0.057 1.1795636,-0.083 0.3824461,-0.018 0.765166,-0.011 1.1477257,0 0.5123062,0.012 1.0246605,0.018 1.5367854,0.036 0.6847246,0.04 1.3704023,0.037 2.0558053,0.024 0.849546,-0.024 1.698698,-0.059 2.547953,-0.092 0.72923,-0.031 1.458887,-0.044 2.188606,-0.055 0.523591,-0.01 1.047195,-0.013 1.570768,-0.022 0.317798,-0.01 0.635596,-0.011 0.953416,-0.015 0.110781,0 0.22156,0 0.33234,0 0,0 -1.760774,1.2795 -1.760774,1.2795 l 0,0 c -0.107018,0 -0.214035,0 -0.321054,0 -0.305191,0 -0.610361,-0.01 -0.915534,-0.013 -0.506945,-0.01 -1.013924,-0.012 -1.520915,-0.013 -0.715468,0 -1.430788,0.01 -2.145946,0.031 -0.853815,0.023 -1.707234,0.055 -2.560239,0.099 -0.7014573,0.024 -1.4027123,0.013 -2.1042898,0 -0.5236409,-0.01 -1.047312,-0.01 -1.57102,-0.01 -0.3835816,-10e-5 -0.7673717,-2e-4 -1.1504128,0.023 -0.3899663,0.023 -0.7796141,0.051 -1.1694059,0.076 -0.3854397,0.027 -0.7712686,0.046 -1.157051,0.067 -0.3953966,0.022 -0.7912991,0.035 -1.1861333,0.067 -0.29038484,0.025 -0.57918713,0.064 -0.86915314,0.089 0,0 1.79471704,-1.3039 1.79471704,-1.3039 z"
         id="path4250"
         style="opacity:1;fill:#ffffff;fill-opacity:1;stroke:#000000;stroke-width:0.23762897;stroke-miterlimit:4;stroke-dasharray:none;stroke-opacity:1" />
      <path
         inkscape:connector-curvature="0"
         d="m 10.683999,1031.9064 c 0.03952,0.2769 0.07341,0.5547 0.105343,0.8327 0.0491,0.5878 0.08681,1.1763 0.102908,1.766 0.01272,0.5489 -0.0175,1.0972 -0.04303,1.6453 -0.01895,0.385 -0.03632,0.77 -0.05086,1.1551 -0.01092,0.2895 -0.01589,0.5791 -0.01829,0.8688 -8.54e-4,0.1998 -0.0042,0.3997 -0.0054,0.5995 -7e-5,0.028 -1.4e-4,0.057 -2.09e-4,0.085 0,0 -1.9479974,0.989 -1.9479974,0.989 l 0,0 c 7.739e-4,-0.029 0.00155,-0.058 0.00232,-0.087 0.00525,-0.2033 0.00985,-0.4066 0.020201,-0.6098 0.013708,-0.2948 0.026444,-0.5897 0.041218,-0.8846 0.020637,-0.392 0.046952,-0.7837 0.080704,-1.1748 0.045764,-0.5473 0.093871,-1.0955 0.083379,-1.6454 -0.00996,-0.5754 -0.036606,-1.1521 -0.1360481,-1.7201 -0.045262,-0.257 -0.087061,-0.5172 -0.1816225,-0.7618 0,0 1.947396,-1.0584 1.947396,-1.0584 z"
         id="path4258"
         style="opacity:1;fill:#ffffff;fill-opacity:1;stroke:#000000;stroke-width:0.23762897;stroke-miterlimit:4;stroke-dasharray:none;stroke-opacity:1" />
    </g>
  </g>
</svg>
